solid OpenSCAD_Model
  facet normal 1 -0 0
    outer loop
      vertex 0 -8 10
      vertex 0 5 -10
      vertex 0 5 10
    endloop
  endfacet
  facet normal 1 0 0
    outer loop
      vertex 0 5 -10
      vertex 0 -8 10
      vertex 0 -8 -10
    endloop
  endfacet
  facet normal 0 0 1
    outer loop
      vertex 17.5 145 10
      vertex 10 87 10
      vertex 17.5 5 10
    endloop
  endfacet
  facet normal -0 0 1
    outer loop
      vertex 8.5 145 10
      vertex 10 87 10
      vertex 17.5 145 10
    endloop
  endfacet
  facet normal 0 0 1
    outer loop
      vertex 10 87 10
      vertex 8.5 145 10
      vertex 8.5 87 10
    endloop
  endfacet
  facet normal -0 0 1
    outer loop
      vertex 10 57 10
      vertex 17.5 5 10
      vertex 10 87 10
    endloop
  endfacet
  facet normal 0 0 1
    outer loop
      vertex 8.5 8 10
      vertex 10 57 10
      vertex 8.5 57 10
    endloop
  endfacet
  facet normal 0 0 1
    outer loop
      vertex 10 57 10
      vertex 8.5 8 10
      vertex 17.5 5 10
    endloop
  endfacet
  facet normal 0 0 1
    outer loop
      vertex 8.5 8 10
      vertex 0 5 10
      vertex 17.5 5 10
    endloop
  endfacet
  facet normal -0 0 1
    outer loop
      vertex -3 8 10
      vertex 0 5 10
      vertex 8.5 8 10
    endloop
  endfacet
  facet normal 0 0 1
    outer loop
      vertex -3 -8 10
      vertex 0 5 10
      vertex -3 8 10
    endloop
  endfacet
  facet normal 0 0 1
    outer loop
      vertex 0 5 10
      vertex -3 -8 10
      vertex 0 -8 10
    endloop
  endfacet
  facet normal 0 0 -1
    outer loop
      vertex 0 -8 -10
      vertex -3 -8 -10
      vertex 0 5 -10
    endloop
  endfacet
  facet normal 0 0 -1
    outer loop
      vertex 10 87 -10
      vertex 17.5 5 -10
      vertex 10 57 -10
    endloop
  endfacet
  facet normal 0 0 -1
    outer loop
      vertex 17.5 5 -10
      vertex 8.5 8 -10
      vertex 10 57 -10
    endloop
  endfacet
  facet normal 0 0 -1
    outer loop
      vertex 0 5 -10
      vertex 8.5 8 -10
      vertex 17.5 5 -10
    endloop
  endfacet
  facet normal 0 0 -1
    outer loop
      vertex 0 5 -10
      vertex -3 8 -10
      vertex 8.5 8 -10
    endloop
  endfacet
  facet normal 0 0 -1
    outer loop
      vertex -3 8 -10
      vertex 0 5 -10
      vertex -3 -8 -10
    endloop
  endfacet
  facet normal 0 0 -1
    outer loop
      vertex 17.5 5 -10
      vertex 10 87 -10
      vertex 17.5 145 -10
    endloop
  endfacet
  facet normal 0 0 -1
    outer loop
      vertex 8.5 145 -10
      vertex 10 87 -10
      vertex 8.5 87 -10
    endloop
  endfacet
  facet normal 0 0 -1
    outer loop
      vertex 10 87 -10
      vertex 8.5 145 -10
      vertex 17.5 145 -10
    endloop
  endfacet
  facet normal -0 0 -1
    outer loop
      vertex 10 57 -10
      vertex 8.5 8 -10
      vertex 8.5 57 -10
    endloop
  endfacet
  facet normal -1 0 0
    outer loop
      vertex -3 -8 -10
      vertex -3 8 10
      vertex -3 8 -10
    endloop
  endfacet
  facet normal -1 -0 0
    outer loop
      vertex -3 8 10
      vertex -3 -8 -10
      vertex -3 -8 10
    endloop
  endfacet
  facet normal 0 1 -0
    outer loop
      vertex 8.5 8 -10
      vertex -3 8 10
      vertex 8.5 8 10
    endloop
  endfacet
  facet normal 0 1 0
    outer loop
      vertex -3 8 10
      vertex 8.5 8 -10
      vertex -3 8 -10
    endloop
  endfacet
  facet normal 0 -1 0
    outer loop
      vertex -3 -8 -10
      vertex 0 -8 10
      vertex -3 -8 10
    endloop
  endfacet
  facet normal 0 -1 -0
    outer loop
      vertex 0 -8 10
      vertex -3 -8 -10
      vertex 0 -8 -10
    endloop
  endfacet
  facet normal 0 -1 0
    outer loop
      vertex 0 5 -10
      vertex 17.5 5 10
      vertex 0 5 10
    endloop
  endfacet
  facet normal 0 -1 -0
    outer loop
      vertex 17.5 5 10
      vertex 0 5 -10
      vertex 17.5 5 -10
    endloop
  endfacet
  facet normal 1 0 0
    outer loop
      vertex 17.5 145 10
      vertex 17.5 139.5 0
      vertex 17.5 145 -10
    endloop
  endfacet
  facet normal 1 0 0
    outer loop
      vertex 17.5 145 10
      vertex 17.5 138.768 1.76777
      vertex 17.5 139.5 0
    endloop
  endfacet
  facet normal 1 0 0
    outer loop
      vertex 17.5 145 10
      vertex 17.5 137 2.5
      vertex 17.5 138.768 1.76777
    endloop
  endfacet
  facet normal 1 0 0
    outer loop
      vertex 17.5 125 2.5
      vertex 17.5 137 2.5
      vertex 17.5 145 10
    endloop
  endfacet
  facet normal 1 0 0
    outer loop
      vertex 17.5 135.232 1.76777
      vertex 17.5 127.5 0
      vertex 17.5 134.5 0
    endloop
  endfacet
  facet normal 1 0 0
    outer loop
      vertex 17.5 137 2.5
      vertex 17.5 125 2.5
      vertex 17.5 135.232 1.76777
    endloop
  endfacet
  facet normal 1 0 0
    outer loop
      vertex 17.5 135.232 1.76777
      vertex 17.5 126.768 1.76777
      vertex 17.5 127.5 0
    endloop
  endfacet
  facet normal 1 0 0
    outer loop
      vertex 17.5 135.232 1.76777
      vertex 17.5 125 2.5
      vertex 17.5 126.768 1.76777
    endloop
  endfacet
  facet normal 1 0 0
    outer loop
      vertex 17.5 123.232 1.76777
      vertex 17.5 115.5 0
      vertex 17.5 122.5 0
    endloop
  endfacet
  facet normal 1 0 0
    outer loop
      vertex 17.5 114.768 1.76777
      vertex 17.5 123.232 1.76777
      vertex 17.5 125 2.5
    endloop
  endfacet
  facet normal 1 0 0
    outer loop
      vertex 17.5 113 2.5
      vertex 17.5 125 2.5
      vertex 17.5 145 10
    endloop
  endfacet
  facet normal 1 0 0
    outer loop
      vertex 17.5 123.232 1.76777
      vertex 17.5 114.768 1.76777
      vertex 17.5 115.5 0
    endloop
  endfacet
  facet normal 1 0 0
    outer loop
      vertex 17.5 125 2.5
      vertex 17.5 113 2.5
      vertex 17.5 114.768 1.76777
    endloop
  endfacet
  facet normal 1 0 0
    outer loop
      vertex 17.5 111.232 1.76777
      vertex 17.5 5 10
      vertex 17.5 110.5 0
    endloop
  endfacet
  facet normal 1 0 0
    outer loop
      vertex 17.5 113 2.5
      vertex 17.5 5 10
      vertex 17.5 111.232 1.76777
    endloop
  endfacet
  facet normal 1 -0 0
    outer loop
      vertex 17.5 5 10
      vertex 17.5 113 2.5
      vertex 17.5 145 10
    endloop
  endfacet
  facet normal 1 -0 0
    outer loop
      vertex 17.5 138.768 -1.76777
      vertex 17.5 145 -10
      vertex 17.5 139.5 0
    endloop
  endfacet
  facet normal 1 -0 0
    outer loop
      vertex 17.5 137 -2.5
      vertex 17.5 145 -10
      vertex 17.5 138.768 -1.76777
    endloop
  endfacet
  facet normal 1 0 0
    outer loop
      vertex 17.5 125 -2.5
      vertex 17.5 137 -2.5
      vertex 17.5 135.232 -1.76777
    endloop
  endfacet
  facet normal 1 -0 0
    outer loop
      vertex 17.5 127.5 0
      vertex 17.5 135.232 -1.76777
      vertex 17.5 134.5 0
    endloop
  endfacet
  facet normal 1 0 0
    outer loop
      vertex 17.5 126.768 -1.76777
      vertex 17.5 135.232 -1.76777
      vertex 17.5 127.5 0
    endloop
  endfacet
  facet normal 1 0 0
    outer loop
      vertex 17.5 125 -2.5
      vertex 17.5 135.232 -1.76777
      vertex 17.5 126.768 -1.76777
    endloop
  endfacet
  facet normal 1 0 0
    outer loop
      vertex 17.5 137 -2.5
      vertex 17.5 125 -2.5
      vertex 17.5 145 -10
    endloop
  endfacet
  facet normal 1 -0 0
    outer loop
      vertex 17.5 115.5 0
      vertex 17.5 123.232 -1.76777
      vertex 17.5 122.5 0
    endloop
  endfacet
  facet normal 1 0 0
    outer loop
      vertex 17.5 114.768 -1.76777
      vertex 17.5 123.232 -1.76777
      vertex 17.5 115.5 0
    endloop
  endfacet
  facet normal 1 0 0
    outer loop
      vertex 17.5 123.232 -1.76777
      vertex 17.5 114.768 -1.76777
      vertex 17.5 125 -2.5
    endloop
  endfacet
  facet normal 1 0 0
    outer loop
      vertex 17.5 113 -2.5
      vertex 17.5 125 -2.5
      vertex 17.5 114.768 -1.76777
    endloop
  endfacet
  facet normal 1 0 0
    outer loop
      vertex 17.5 125 -2.5
      vertex 17.5 113 -2.5
      vertex 17.5 145 -10
    endloop
  endfacet
  facet normal 1 0 0
    outer loop
      vertex 17.5 5 -10
      vertex 17.5 110.5 0
      vertex 17.5 5 10
    endloop
  endfacet
  facet normal 1 0 0
    outer loop
      vertex 17.5 110.5 0
      vertex 17.5 5 -10
      vertex 17.5 111.232 -1.76777
    endloop
  endfacet
  facet normal 1 0 0
    outer loop
      vertex 17.5 111.232 -1.76777
      vertex 17.5 5 -10
      vertex 17.5 113 -2.5
    endloop
  endfacet
  facet normal 1 0 0
    outer loop
      vertex 17.5 113 -2.5
      vertex 17.5 5 -10
      vertex 17.5 145 -10
    endloop
  endfacet
  facet normal -1 0 0
    outer loop
      vertex 8.5 145 -10
      vertex 8.5 142 0
      vertex 8.5 145 10
    endloop
  endfacet
  facet normal -1 0 0
    outer loop
      vertex 8.5 145 -10
      vertex 8.5 141.619 -1.91342
      vertex 8.5 142 0
    endloop
  endfacet
  facet normal -1 0 0
    outer loop
      vertex 8.5 145 -10
      vertex 8.5 140.536 -3.53553
      vertex 8.5 141.619 -1.91342
    endloop
  endfacet
  facet normal -1 0 0
    outer loop
      vertex 8.5 145 -10
      vertex 8.5 138.913 -4.6194
      vertex 8.5 140.536 -3.53553
    endloop
  endfacet
  facet normal -1 0 0
    outer loop
      vertex 8.5 145 -10
      vertex 8.5 137 -5
      vertex 8.5 138.913 -4.6194
    endloop
  endfacet
  facet normal -1 0 0
    outer loop
      vertex 8.5 145 -10
      vertex 8.5 135.087 -4.6194
      vertex 8.5 137 -5
    endloop
  endfacet
  facet normal -1 0 0
    outer loop
      vertex 8.5 132.381 -1.91342
      vertex 8.5 130 0
      vertex 8.5 132 0
    endloop
  endfacet
  facet normal -1 0 0
    outer loop
      vertex 8.5 129.619 -1.91342
      vertex 8.5 132.381 -1.91342
      vertex 8.5 133.464 -3.53553
    endloop
  endfacet
  facet normal -1 0 0
    outer loop
      vertex 8.5 132.381 -1.91342
      vertex 8.5 129.619 -1.91342
      vertex 8.5 130 0
    endloop
  endfacet
  facet normal -1 0 0
    outer loop
      vertex 8.5 128.536 -3.53553
      vertex 8.5 133.464 -3.53553
      vertex 8.5 135.087 -4.6194
    endloop
  endfacet
  facet normal -1 0 0
    outer loop
      vertex 8.5 126.913 -4.6194
      vertex 8.5 135.087 -4.6194
      vertex 8.5 145 -10
    endloop
  endfacet
  facet normal -1 0 0
    outer loop
      vertex 8.5 133.464 -3.53553
      vertex 8.5 128.536 -3.53553
      vertex 8.5 129.619 -1.91342
    endloop
  endfacet
  facet normal -1 0 0
    outer loop
      vertex 8.5 135.087 -4.6194
      vertex 8.5 126.913 -4.6194
      vertex 8.5 128.536 -3.53553
    endloop
  endfacet
  facet normal -1 0 0
    outer loop
      vertex 8.5 145 -10
      vertex 8.5 125 -5
      vertex 8.5 126.913 -4.6194
    endloop
  endfacet
  facet normal -1 0 0
    outer loop
      vertex 8.5 113 -5
      vertex 8.5 125 -5
      vertex 8.5 145 -10
    endloop
  endfacet
  facet normal -1 0 0
    outer loop
      vertex 8.5 120.381 -1.91342
      vertex 8.5 118 0
      vertex 8.5 120 0
    endloop
  endfacet
  facet normal -1 0 0
    outer loop
      vertex 8.5 117.619 -1.91342
      vertex 8.5 120.381 -1.91342
      vertex 8.5 121.464 -3.53553
    endloop
  endfacet
  facet normal -1 0 0
    outer loop
      vertex 8.5 120.381 -1.91342
      vertex 8.5 117.619 -1.91342
      vertex 8.5 118 0
    endloop
  endfacet
  facet normal -1 0 0
    outer loop
      vertex 8.5 116.536 -3.53553
      vertex 8.5 121.464 -3.53553
      vertex 8.5 123.087 -4.6194
    endloop
  endfacet
  facet normal -1 0 0
    outer loop
      vertex 8.5 121.464 -3.53553
      vertex 8.5 116.536 -3.53553
      vertex 8.5 117.619 -1.91342
    endloop
  endfacet
  facet normal -1 0 0
    outer loop
      vertex 8.5 125 -5
      vertex 8.5 113 -5
      vertex 8.5 123.087 -4.6194
    endloop
  endfacet
  facet normal -1 0 0
    outer loop
      vertex 8.5 123.087 -4.6194
      vertex 8.5 114.913 -4.6194
      vertex 8.5 116.536 -3.53553
    endloop
  endfacet
  facet normal -1 -0 0
    outer loop
      vertex 8.5 123.087 -4.6194
      vertex 8.5 113 -5
      vertex 8.5 114.913 -4.6194
    endloop
  endfacet
  facet normal -1 -0 0
    outer loop
      vertex 8.5 108.381 -1.91342
      vertex 8.5 87 -10
      vertex 8.5 108 0
    endloop
  endfacet
  facet normal -1 -0 0
    outer loop
      vertex 8.5 109.464 -3.53553
      vertex 8.5 87 -10
      vertex 8.5 108.381 -1.91342
    endloop
  endfacet
  facet normal -1 -0 0
    outer loop
      vertex 8.5 111.087 -4.6194
      vertex 8.5 87 -10
      vertex 8.5 109.464 -3.53553
    endloop
  endfacet
  facet normal -1 -0 0
    outer loop
      vertex 8.5 113 -5
      vertex 8.5 87 -10
      vertex 8.5 111.087 -4.6194
    endloop
  endfacet
  facet normal -1 0 0
    outer loop
      vertex 8.5 87 -10
      vertex 8.5 113 -5
      vertex 8.5 145 -10
    endloop
  endfacet
  facet normal -1 0 0
    outer loop
      vertex 8.5 141.619 1.91342
      vertex 8.5 145 10
      vertex 8.5 142 0
    endloop
  endfacet
  facet normal -1 0 0
    outer loop
      vertex 8.5 140.536 3.53553
      vertex 8.5 145 10
      vertex 8.5 141.619 1.91342
    endloop
  endfacet
  facet normal -1 0 0
    outer loop
      vertex 8.5 138.913 4.6194
      vertex 8.5 145 10
      vertex 8.5 140.536 3.53553
    endloop
  endfacet
  facet normal -1 0 0
    outer loop
      vertex 8.5 137 5
      vertex 8.5 145 10
      vertex 8.5 138.913 4.6194
    endloop
  endfacet
  facet normal -1 0 0
    outer loop
      vertex 8.5 135.087 4.6194
      vertex 8.5 145 10
      vertex 8.5 137 5
    endloop
  endfacet
  facet normal -1 0 0
    outer loop
      vertex 8.5 130 0
      vertex 8.5 132.381 1.91342
      vertex 8.5 132 0
    endloop
  endfacet
  facet normal -1 0 0
    outer loop
      vertex 8.5 129.619 1.91342
      vertex 8.5 132.381 1.91342
      vertex 8.5 130 0
    endloop
  endfacet
  facet normal -1 0 0
    outer loop
      vertex 8.5 132.381 1.91342
      vertex 8.5 129.619 1.91342
      vertex 8.5 133.464 3.53553
    endloop
  endfacet
  facet normal -1 0 0
    outer loop
      vertex 8.5 128.536 3.53553
      vertex 8.5 133.464 3.53553
      vertex 8.5 129.619 1.91342
    endloop
  endfacet
  facet normal -1 0 0
    outer loop
      vertex 8.5 133.464 3.53553
      vertex 8.5 128.536 3.53553
      vertex 8.5 135.087 4.6194
    endloop
  endfacet
  facet normal -1 0 0
    outer loop
      vertex 8.5 126.913 4.6194
      vertex 8.5 135.087 4.6194
      vertex 8.5 128.536 3.53553
    endloop
  endfacet
  facet normal -1 0 0
    outer loop
      vertex 8.5 135.087 4.6194
      vertex 8.5 126.913 4.6194
      vertex 8.5 145 10
    endloop
  endfacet
  facet normal -1 0 0
    outer loop
      vertex 8.5 125 5
      vertex 8.5 145 10
      vertex 8.5 126.913 4.6194
    endloop
  endfacet
  facet normal -1 0 0
    outer loop
      vertex 8.5 113 5
      vertex 8.5 125 5
      vertex 8.5 123.087 4.6194
    endloop
  endfacet
  facet normal -1 0 0
    outer loop
      vertex 8.5 118 0
      vertex 8.5 120.381 1.91342
      vertex 8.5 120 0
    endloop
  endfacet
  facet normal -1 0 0
    outer loop
      vertex 8.5 117.619 1.91342
      vertex 8.5 120.381 1.91342
      vertex 8.5 118 0
    endloop
  endfacet
  facet normal -1 0 0
    outer loop
      vertex 8.5 120.381 1.91342
      vertex 8.5 117.619 1.91342
      vertex 8.5 121.464 3.53553
    endloop
  endfacet
  facet normal -1 0 0
    outer loop
      vertex 8.5 116.536 3.53553
      vertex 8.5 121.464 3.53553
      vertex 8.5 117.619 1.91342
    endloop
  endfacet
  facet normal -1 0 0
    outer loop
      vertex 8.5 121.464 3.53553
      vertex 8.5 116.536 3.53553
      vertex 8.5 123.087 4.6194
    endloop
  endfacet
  facet normal -1 0 0
    outer loop
      vertex 8.5 114.913 4.6194
      vertex 8.5 123.087 4.6194
      vertex 8.5 116.536 3.53553
    endloop
  endfacet
  facet normal -1 0 0
    outer loop
      vertex 8.5 113 5
      vertex 8.5 123.087 4.6194
      vertex 8.5 114.913 4.6194
    endloop
  endfacet
  facet normal -1 0 0
    outer loop
      vertex 8.5 125 5
      vertex 8.5 113 5
      vertex 8.5 145 10
    endloop
  endfacet
  facet normal -1 0 0
    outer loop
      vertex 8.5 87 10
      vertex 8.5 108 0
      vertex 8.5 87 -10
    endloop
  endfacet
  facet normal -1 0 0
    outer loop
      vertex 8.5 108 0
      vertex 8.5 87 10
      vertex 8.5 108.381 1.91342
    endloop
  endfacet
  facet normal -1 0 0
    outer loop
      vertex 8.5 108.381 1.91342
      vertex 8.5 87 10
      vertex 8.5 109.464 3.53553
    endloop
  endfacet
  facet normal -1 0 0
    outer loop
      vertex 8.5 113 5
      vertex 8.5 87 10
      vertex 8.5 145 10
    endloop
  endfacet
  facet normal -1 0 0
    outer loop
      vertex 8.5 111.087 4.6194
      vertex 8.5 87 10
      vertex 8.5 113 5
    endloop
  endfacet
  facet normal -1 0 0
    outer loop
      vertex 8.5 109.464 3.53553
      vertex 8.5 87 10
      vertex 8.5 111.087 4.6194
    endloop
  endfacet
  facet normal -1 0 0
    outer loop
      vertex 8.5 8 -10
      vertex 8.5 57 10
      vertex 8.5 57 -10
    endloop
  endfacet
  facet normal -1 -0 0
    outer loop
      vertex 8.5 57 10
      vertex 8.5 8 -10
      vertex 8.5 8 10
    endloop
  endfacet
  facet normal 0 1 -0
    outer loop
      vertex 17.5 145 -10
      vertex 8.5 145 10
      vertex 17.5 145 10
    endloop
  endfacet
  facet normal 0 1 0
    outer loop
      vertex 8.5 145 10
      vertex 17.5 145 -10
      vertex 8.5 145 -10
    endloop
  endfacet
  facet normal 0 0.382639 -0.923898
    outer loop
      vertex 11.5 135.232 1.76777
      vertex 17.5 137 2.5
      vertex 17.5 135.232 1.76777
    endloop
  endfacet
  facet normal 0 0.382639 -0.923898
    outer loop
      vertex 17.5 137 2.5
      vertex 11.5 135.232 1.76777
      vertex 11.5 137 2.5
    endloop
  endfacet
  facet normal 0 -0.923923 0.382579
    outer loop
      vertex 11.5 138.768 -1.76777
      vertex 17.5 139.5 0
      vertex 11.5 139.5 0
    endloop
  endfacet
  facet normal 0 -0.923923 0.382579
    outer loop
      vertex 17.5 139.5 0
      vertex 11.5 138.768 -1.76777
      vertex 17.5 138.768 -1.76777
    endloop
  endfacet
  facet normal 0 -0.382639 0.923898
    outer loop
      vertex 11.5 138.768 -1.76777
      vertex 17.5 137 -2.5
      vertex 17.5 138.768 -1.76777
    endloop
  endfacet
  facet normal 0 -0.382639 0.923898
    outer loop
      vertex 17.5 137 -2.5
      vertex 11.5 138.768 -1.76777
      vertex 11.5 137 -2.5
    endloop
  endfacet
  facet normal 0 0.923923 -0.382579
    outer loop
      vertex 17.5 134.5 0
      vertex 11.5 135.232 1.76777
      vertex 17.5 135.232 1.76777
    endloop
  endfacet
  facet normal 0 0.923923 -0.382579
    outer loop
      vertex 11.5 135.232 1.76777
      vertex 17.5 134.5 0
      vertex 11.5 134.5 0
    endloop
  endfacet
  facet normal 0 -0.382639 -0.923898
    outer loop
      vertex 11.5 137 2.5
      vertex 17.5 138.768 1.76777
      vertex 17.5 137 2.5
    endloop
  endfacet
  facet normal -0 -0.382639 -0.923898
    outer loop
      vertex 17.5 138.768 1.76777
      vertex 11.5 137 2.5
      vertex 11.5 138.768 1.76777
    endloop
  endfacet
  facet normal 0 -0.923923 -0.382579
    outer loop
      vertex 11.5 139.5 0
      vertex 17.5 138.768 1.76777
      vertex 11.5 138.768 1.76777
    endloop
  endfacet
  facet normal 0 -0.923923 -0.382579
    outer loop
      vertex 17.5 138.768 1.76777
      vertex 11.5 139.5 0
      vertex 17.5 139.5 0
    endloop
  endfacet
  facet normal -0 0.382639 0.923898
    outer loop
      vertex 11.5 137 -2.5
      vertex 17.5 135.232 -1.76777
      vertex 17.5 137 -2.5
    endloop
  endfacet
  facet normal 0 0.382639 0.923898
    outer loop
      vertex 17.5 135.232 -1.76777
      vertex 11.5 137 -2.5
      vertex 11.5 135.232 -1.76777
    endloop
  endfacet
  facet normal 0 0.923923 0.382579
    outer loop
      vertex 17.5 135.232 -1.76777
      vertex 11.5 134.5 0
      vertex 17.5 134.5 0
    endloop
  endfacet
  facet normal 0 0.923923 0.382579
    outer loop
      vertex 11.5 134.5 0
      vertex 17.5 135.232 -1.76777
      vertex 11.5 135.232 -1.76777
    endloop
  endfacet
  facet normal -0.632835 -0.151087 0.759403
    outer loop
      vertex 11.5 137 -2.5
      vertex 8.5 138.913 -4.6194
      vertex 8.5 137 -5
    endloop
  endfacet
  facet normal -0.632745 -0.643833 0.430248
    outer loop
      vertex 11.5 138.768 -1.76777
      vertex 11.5 139.31 -0.956708
      vertex 8.5 141.619 -1.91342
    endloop
  endfacet
  facet normal -0.632839 -0.430009 -0.6439
    outer loop
      vertex 8.5 140.536 3.53553
      vertex 11.5 138.768 1.76777
      vertex 8.5 138.913 4.6194
    endloop
  endfacet
  facet normal -0.632823 -0.759388 0.151209
    outer loop
      vertex 11.5 139.5 0
      vertex 8.5 142 0
      vertex 8.5 141.619 -1.91342
    endloop
  endfacet
  facet normal -0.632839 -0.430009 0.6439
    outer loop
      vertex 11.5 138.768 -1.76777
      vertex 8.5 140.536 -3.53553
      vertex 8.5 138.913 -4.6194
    endloop
  endfacet
  facet normal -0.63271 -0.759555 0.150846
    outer loop
      vertex 11.5 139.31 -0.956708
      vertex 11.5 139.5 0
      vertex 8.5 141.619 -1.91342
    endloop
  endfacet
  facet normal -0.632835 0.151087 0.759403
    outer loop
      vertex 11.5 137 -2.5
      vertex 8.5 137 -5
      vertex 8.5 135.087 -4.6194
    endloop
  endfacet
  facet normal -0.63284 0.64395 -0.429932
    outer loop
      vertex 8.5 133.464 3.53553
      vertex 11.5 135.232 1.76777
      vertex 8.5 132.381 1.91342
    endloop
  endfacet
  facet normal -0.632745 0.643833 -0.430248
    outer loop
      vertex 11.5 135.232 1.76777
      vertex 11.5 134.69 0.956708
      vertex 8.5 132.381 1.91342
    endloop
  endfacet
  facet normal -0.632823 0.759388 -0.151209
    outer loop
      vertex 8.5 132.381 1.91342
      vertex 11.5 134.5 0
      vertex 8.5 132 0
    endloop
  endfacet
  facet normal -0.63271 0.759555 0.150846
    outer loop
      vertex 11.5 134.5 0
      vertex 11.5 134.69 -0.956708
      vertex 8.5 132.381 -1.91342
    endloop
  endfacet
  facet normal -0.632823 -0.759388 -0.151209
    outer loop
      vertex 8.5 142 0
      vertex 11.5 139.5 0
      vertex 8.5 141.619 1.91342
    endloop
  endfacet
  facet normal -0.632835 -0.151087 -0.759403
    outer loop
      vertex 8.5 138.913 4.6194
      vertex 11.5 137 2.5
      vertex 8.5 137 5
    endloop
  endfacet
  facet normal -0.63271 0.759555 -0.150846
    outer loop
      vertex 11.5 134.69 0.956708
      vertex 11.5 134.5 0
      vertex 8.5 132.381 1.91342
    endloop
  endfacet
  facet normal -1 0 -0
    outer loop
      vertex 11.5 136.043 2.3097
      vertex 11.5 137 2.5
      vertex 11.5 135.232 1.76777
    endloop
  endfacet
  facet normal -1 0 -0
    outer loop
      vertex 11.5 134.69 0.956708
      vertex 11.5 135.232 1.76777
      vertex 11.5 134.5 0
    endloop
  endfacet
  facet normal -1 0 0
    outer loop
      vertex 11.5 135.232 -1.76777
      vertex 11.5 134.69 -0.956708
      vertex 11.5 134.5 0
    endloop
  endfacet
  facet normal -1 -0 -0
    outer loop
      vertex 11.5 137.957 2.3097
      vertex 11.5 138.768 1.76777
      vertex 11.5 137 2.5
    endloop
  endfacet
  facet normal -1 -0 -0
    outer loop
      vertex 11.5 139.31 0.956708
      vertex 11.5 139.5 0
      vertex 11.5 138.768 1.76777
    endloop
  endfacet
  facet normal -1 0 0
    outer loop
      vertex 11.5 139.5 0
      vertex 11.5 139.31 -0.956708
      vertex 11.5 138.768 -1.76777
    endloop
  endfacet
  facet normal -1 0 0
    outer loop
      vertex 11.5 138.768 -1.76777
      vertex 11.5 137.957 -2.3097
      vertex 11.5 137 -2.5
    endloop
  endfacet
  facet normal -1 0 0
    outer loop
      vertex 11.5 137 -2.5
      vertex 11.5 136.043 -2.3097
      vertex 11.5 135.232 -1.76777
    endloop
  endfacet
  facet normal -0.632823 0.759388 0.151209
    outer loop
      vertex 11.5 134.5 0
      vertex 8.5 132.381 -1.91342
      vertex 8.5 132 0
    endloop
  endfacet
  facet normal -0.632775 -0.430218 -0.643823
    outer loop
      vertex 11.5 138.768 1.76777
      vertex 11.5 137.957 2.3097
      vertex 8.5 138.913 4.6194
    endloop
  endfacet
  facet normal -0.63284 -0.64395 -0.429932
    outer loop
      vertex 8.5 141.619 1.91342
      vertex 11.5 138.768 1.76777
      vertex 8.5 140.536 3.53553
    endloop
  endfacet
  facet normal -0.632839 0.430009 0.6439
    outer loop
      vertex 11.5 135.232 -1.76777
      vertex 8.5 135.087 -4.6194
      vertex 8.5 133.464 -3.53553
    endloop
  endfacet
  facet normal -0.632775 -0.430218 0.643823
    outer loop
      vertex 11.5 137.957 -2.3097
      vertex 11.5 138.768 -1.76777
      vertex 8.5 138.913 -4.6194
    endloop
  endfacet
  facet normal -0.63284 -0.64395 0.429932
    outer loop
      vertex 11.5 138.768 -1.76777
      vertex 8.5 141.619 -1.91342
      vertex 8.5 140.536 -3.53553
    endloop
  endfacet
  facet normal -0.632839 0.430009 -0.6439
    outer loop
      vertex 8.5 135.087 4.6194
      vertex 11.5 135.232 1.76777
      vertex 8.5 133.464 3.53553
    endloop
  endfacet
  facet normal -0.63271 -0.759555 -0.150846
    outer loop
      vertex 11.5 139.5 0
      vertex 11.5 139.31 0.956708
      vertex 8.5 141.619 1.91342
    endloop
  endfacet
  facet normal -0.632835 0.151087 -0.759403
    outer loop
      vertex 8.5 137 5
      vertex 11.5 137 2.5
      vertex 8.5 135.087 4.6194
    endloop
  endfacet
  facet normal -0.632813 -0.151014 -0.759436
    outer loop
      vertex 11.5 137.957 2.3097
      vertex 11.5 137 2.5
      vertex 8.5 138.913 4.6194
    endloop
  endfacet
  facet normal -0.632775 0.430218 -0.643823
    outer loop
      vertex 11.5 136.043 2.3097
      vertex 11.5 135.232 1.76777
      vertex 8.5 135.087 4.6194
    endloop
  endfacet
  facet normal -0.632813 0.151014 0.759436
    outer loop
      vertex 11.5 136.043 -2.3097
      vertex 11.5 137 -2.5
      vertex 8.5 135.087 -4.6194
    endloop
  endfacet
  facet normal -0.632745 0.643833 0.430248
    outer loop
      vertex 11.5 134.69 -0.956708
      vertex 11.5 135.232 -1.76777
      vertex 8.5 132.381 -1.91342
    endloop
  endfacet
  facet normal -0.63284 0.64395 0.429932
    outer loop
      vertex 11.5 135.232 -1.76777
      vertex 8.5 133.464 -3.53553
      vertex 8.5 132.381 -1.91342
    endloop
  endfacet
  facet normal -0.632813 -0.151014 0.759436
    outer loop
      vertex 11.5 137 -2.5
      vertex 11.5 137.957 -2.3097
      vertex 8.5 138.913 -4.6194
    endloop
  endfacet
  facet normal -0.632745 -0.643833 -0.430248
    outer loop
      vertex 11.5 139.31 0.956708
      vertex 11.5 138.768 1.76777
      vertex 8.5 141.619 1.91342
    endloop
  endfacet
  facet normal -0.632775 0.430218 0.643823
    outer loop
      vertex 11.5 135.232 -1.76777
      vertex 11.5 136.043 -2.3097
      vertex 8.5 135.087 -4.6194
    endloop
  endfacet
  facet normal -0.632813 0.151014 -0.759436
    outer loop
      vertex 11.5 137 2.5
      vertex 11.5 136.043 2.3097
      vertex 8.5 135.087 4.6194
    endloop
  endfacet
  facet normal 0 0.382639 -0.923898
    outer loop
      vertex 11.5 123.232 1.76777
      vertex 17.5 125 2.5
      vertex 17.5 123.232 1.76777
    endloop
  endfacet
  facet normal 0 0.382639 -0.923898
    outer loop
      vertex 17.5 125 2.5
      vertex 11.5 123.232 1.76777
      vertex 11.5 125 2.5
    endloop
  endfacet
  facet normal 0 -0.923923 0.382579
    outer loop
      vertex 11.5 126.768 -1.76777
      vertex 17.5 127.5 0
      vertex 11.5 127.5 0
    endloop
  endfacet
  facet normal 0 -0.923923 0.382579
    outer loop
      vertex 17.5 127.5 0
      vertex 11.5 126.768 -1.76777
      vertex 17.5 126.768 -1.76777
    endloop
  endfacet
  facet normal 0 -0.382639 0.923898
    outer loop
      vertex 11.5 126.768 -1.76777
      vertex 17.5 125 -2.5
      vertex 17.5 126.768 -1.76777
    endloop
  endfacet
  facet normal 0 -0.382639 0.923898
    outer loop
      vertex 17.5 125 -2.5
      vertex 11.5 126.768 -1.76777
      vertex 11.5 125 -2.5
    endloop
  endfacet
  facet normal 0 0.923923 -0.382579
    outer loop
      vertex 17.5 122.5 0
      vertex 11.5 123.232 1.76777
      vertex 17.5 123.232 1.76777
    endloop
  endfacet
  facet normal 0 0.923923 -0.382579
    outer loop
      vertex 11.5 123.232 1.76777
      vertex 17.5 122.5 0
      vertex 11.5 122.5 0
    endloop
  endfacet
  facet normal 0 -0.382639 -0.923898
    outer loop
      vertex 11.5 125 2.5
      vertex 17.5 126.768 1.76777
      vertex 17.5 125 2.5
    endloop
  endfacet
  facet normal -0 -0.382639 -0.923898
    outer loop
      vertex 17.5 126.768 1.76777
      vertex 11.5 125 2.5
      vertex 11.5 126.768 1.76777
    endloop
  endfacet
  facet normal 0 -0.923923 -0.382579
    outer loop
      vertex 11.5 127.5 0
      vertex 17.5 126.768 1.76777
      vertex 11.5 126.768 1.76777
    endloop
  endfacet
  facet normal 0 -0.923923 -0.382579
    outer loop
      vertex 17.5 126.768 1.76777
      vertex 11.5 127.5 0
      vertex 17.5 127.5 0
    endloop
  endfacet
  facet normal -0 0.382639 0.923898
    outer loop
      vertex 11.5 125 -2.5
      vertex 17.5 123.232 -1.76777
      vertex 17.5 125 -2.5
    endloop
  endfacet
  facet normal 0 0.382639 0.923898
    outer loop
      vertex 17.5 123.232 -1.76777
      vertex 11.5 125 -2.5
      vertex 11.5 123.232 -1.76777
    endloop
  endfacet
  facet normal 0 0.923923 0.382579
    outer loop
      vertex 17.5 123.232 -1.76777
      vertex 11.5 122.5 0
      vertex 17.5 122.5 0
    endloop
  endfacet
  facet normal 0 0.923923 0.382579
    outer loop
      vertex 11.5 122.5 0
      vertex 17.5 123.232 -1.76777
      vertex 11.5 123.232 -1.76777
    endloop
  endfacet
  facet normal -0.632835 -0.151087 0.759403
    outer loop
      vertex 11.5 125 -2.5
      vertex 8.5 126.913 -4.6194
      vertex 8.5 125 -5
    endloop
  endfacet
  facet normal -0.632745 -0.643833 0.430248
    outer loop
      vertex 11.5 126.768 -1.76777
      vertex 11.5 127.31 -0.956708
      vertex 8.5 129.619 -1.91342
    endloop
  endfacet
  facet normal -0.632839 -0.430009 -0.6439
    outer loop
      vertex 8.5 128.536 3.53553
      vertex 11.5 126.768 1.76777
      vertex 8.5 126.913 4.6194
    endloop
  endfacet
  facet normal -0.632823 -0.759388 0.151209
    outer loop
      vertex 11.5 127.5 0
      vertex 8.5 130 0
      vertex 8.5 129.619 -1.91342
    endloop
  endfacet
  facet normal -0.632839 -0.430009 0.6439
    outer loop
      vertex 11.5 126.768 -1.76777
      vertex 8.5 128.536 -3.53553
      vertex 8.5 126.913 -4.6194
    endloop
  endfacet
  facet normal -0.63271 -0.759555 0.150846
    outer loop
      vertex 11.5 127.31 -0.956708
      vertex 11.5 127.5 0
      vertex 8.5 129.619 -1.91342
    endloop
  endfacet
  facet normal -0.632835 0.151087 0.759403
    outer loop
      vertex 11.5 125 -2.5
      vertex 8.5 125 -5
      vertex 8.5 123.087 -4.6194
    endloop
  endfacet
  facet normal -0.63284 0.64395 -0.429932
    outer loop
      vertex 8.5 121.464 3.53553
      vertex 11.5 123.232 1.76777
      vertex 8.5 120.381 1.91342
    endloop
  endfacet
  facet normal -0.632745 0.643833 -0.430248
    outer loop
      vertex 11.5 123.232 1.76777
      vertex 11.5 122.69 0.956708
      vertex 8.5 120.381 1.91342
    endloop
  endfacet
  facet normal -0.632823 0.759388 -0.151209
    outer loop
      vertex 8.5 120.381 1.91342
      vertex 11.5 122.5 0
      vertex 8.5 120 0
    endloop
  endfacet
  facet normal -0.63271 0.759555 0.150846
    outer loop
      vertex 11.5 122.5 0
      vertex 11.5 122.69 -0.956708
      vertex 8.5 120.381 -1.91342
    endloop
  endfacet
  facet normal -0.632823 -0.759388 -0.151209
    outer loop
      vertex 8.5 130 0
      vertex 11.5 127.5 0
      vertex 8.5 129.619 1.91342
    endloop
  endfacet
  facet normal -0.632835 -0.151087 -0.759403
    outer loop
      vertex 8.5 126.913 4.6194
      vertex 11.5 125 2.5
      vertex 8.5 125 5
    endloop
  endfacet
  facet normal -0.63271 0.759555 -0.150846
    outer loop
      vertex 11.5 122.69 0.956708
      vertex 11.5 122.5 0
      vertex 8.5 120.381 1.91342
    endloop
  endfacet
  facet normal -1 0 -0
    outer loop
      vertex 11.5 124.043 2.3097
      vertex 11.5 125 2.5
      vertex 11.5 123.232 1.76777
    endloop
  endfacet
  facet normal -1 0 -0
    outer loop
      vertex 11.5 122.69 0.956708
      vertex 11.5 123.232 1.76777
      vertex 11.5 122.5 0
    endloop
  endfacet
  facet normal -1 0 0
    outer loop
      vertex 11.5 123.232 -1.76777
      vertex 11.5 122.69 -0.956708
      vertex 11.5 122.5 0
    endloop
  endfacet
  facet normal -1 -0 -0
    outer loop
      vertex 11.5 125.957 2.3097
      vertex 11.5 126.768 1.76777
      vertex 11.5 125 2.5
    endloop
  endfacet
  facet normal -1 -0 -0
    outer loop
      vertex 11.5 127.31 0.956708
      vertex 11.5 127.5 0
      vertex 11.5 126.768 1.76777
    endloop
  endfacet
  facet normal -1 0 0
    outer loop
      vertex 11.5 127.5 0
      vertex 11.5 127.31 -0.956708
      vertex 11.5 126.768 -1.76777
    endloop
  endfacet
  facet normal -1 0 0
    outer loop
      vertex 11.5 126.768 -1.76777
      vertex 11.5 125.957 -2.3097
      vertex 11.5 125 -2.5
    endloop
  endfacet
  facet normal -1 0 0
    outer loop
      vertex 11.5 125 -2.5
      vertex 11.5 124.043 -2.3097
      vertex 11.5 123.232 -1.76777
    endloop
  endfacet
  facet normal -0.632823 0.759388 0.151209
    outer loop
      vertex 11.5 122.5 0
      vertex 8.5 120.381 -1.91342
      vertex 8.5 120 0
    endloop
  endfacet
  facet normal -0.632775 -0.430218 -0.643823
    outer loop
      vertex 11.5 126.768 1.76777
      vertex 11.5 125.957 2.3097
      vertex 8.5 126.913 4.6194
    endloop
  endfacet
  facet normal -0.63284 -0.64395 -0.429932
    outer loop
      vertex 8.5 129.619 1.91342
      vertex 11.5 126.768 1.76777
      vertex 8.5 128.536 3.53553
    endloop
  endfacet
  facet normal -0.632839 0.430009 0.6439
    outer loop
      vertex 11.5 123.232 -1.76777
      vertex 8.5 123.087 -4.6194
      vertex 8.5 121.464 -3.53553
    endloop
  endfacet
  facet normal -0.632775 -0.430218 0.643823
    outer loop
      vertex 11.5 125.957 -2.3097
      vertex 11.5 126.768 -1.76777
      vertex 8.5 126.913 -4.6194
    endloop
  endfacet
  facet normal -0.63284 -0.64395 0.429932
    outer loop
      vertex 11.5 126.768 -1.76777
      vertex 8.5 129.619 -1.91342
      vertex 8.5 128.536 -3.53553
    endloop
  endfacet
  facet normal -0.632839 0.430009 -0.6439
    outer loop
      vertex 8.5 123.087 4.6194
      vertex 11.5 123.232 1.76777
      vertex 8.5 121.464 3.53553
    endloop
  endfacet
  facet normal -0.63271 -0.759555 -0.150846
    outer loop
      vertex 11.5 127.5 0
      vertex 11.5 127.31 0.956708
      vertex 8.5 129.619 1.91342
    endloop
  endfacet
  facet normal -0.632835 0.151087 -0.759403
    outer loop
      vertex 8.5 125 5
      vertex 11.5 125 2.5
      vertex 8.5 123.087 4.6194
    endloop
  endfacet
  facet normal -0.632813 -0.151014 -0.759436
    outer loop
      vertex 11.5 125.957 2.3097
      vertex 11.5 125 2.5
      vertex 8.5 126.913 4.6194
    endloop
  endfacet
  facet normal -0.632775 0.430218 -0.643823
    outer loop
      vertex 11.5 124.043 2.3097
      vertex 11.5 123.232 1.76777
      vertex 8.5 123.087 4.6194
    endloop
  endfacet
  facet normal -0.632813 0.151014 0.759436
    outer loop
      vertex 11.5 124.043 -2.3097
      vertex 11.5 125 -2.5
      vertex 8.5 123.087 -4.6194
    endloop
  endfacet
  facet normal -0.632745 0.643833 0.430248
    outer loop
      vertex 11.5 122.69 -0.956708
      vertex 11.5 123.232 -1.76777
      vertex 8.5 120.381 -1.91342
    endloop
  endfacet
  facet normal -0.63284 0.64395 0.429932
    outer loop
      vertex 11.5 123.232 -1.76777
      vertex 8.5 121.464 -3.53553
      vertex 8.5 120.381 -1.91342
    endloop
  endfacet
  facet normal -0.632813 -0.151014 0.759436
    outer loop
      vertex 11.5 125 -2.5
      vertex 11.5 125.957 -2.3097
      vertex 8.5 126.913 -4.6194
    endloop
  endfacet
  facet normal -0.632745 -0.643833 -0.430248
    outer loop
      vertex 11.5 127.31 0.956708
      vertex 11.5 126.768 1.76777
      vertex 8.5 129.619 1.91342
    endloop
  endfacet
  facet normal -0.632775 0.430218 0.643823
    outer loop
      vertex 11.5 123.232 -1.76777
      vertex 11.5 124.043 -2.3097
      vertex 8.5 123.087 -4.6194
    endloop
  endfacet
  facet normal -0.632813 0.151014 -0.759436
    outer loop
      vertex 11.5 125 2.5
      vertex 11.5 124.043 2.3097
      vertex 8.5 123.087 4.6194
    endloop
  endfacet
  facet normal 0 0.382639 -0.923898
    outer loop
      vertex 11.5 111.232 1.76777
      vertex 17.5 113 2.5
      vertex 17.5 111.232 1.76777
    endloop
  endfacet
  facet normal 0 0.382639 -0.923898
    outer loop
      vertex 17.5 113 2.5
      vertex 11.5 111.232 1.76777
      vertex 11.5 113 2.5
    endloop
  endfacet
  facet normal 0 -0.923923 0.382579
    outer loop
      vertex 11.5 114.768 -1.76777
      vertex 17.5 115.5 0
      vertex 11.5 115.5 0
    endloop
  endfacet
  facet normal 0 -0.923923 0.382579
    outer loop
      vertex 17.5 115.5 0
      vertex 11.5 114.768 -1.76777
      vertex 17.5 114.768 -1.76777
    endloop
  endfacet
  facet normal 0 -0.382639 0.923898
    outer loop
      vertex 11.5 114.768 -1.76777
      vertex 17.5 113 -2.5
      vertex 17.5 114.768 -1.76777
    endloop
  endfacet
  facet normal 0 -0.382639 0.923898
    outer loop
      vertex 17.5 113 -2.5
      vertex 11.5 114.768 -1.76777
      vertex 11.5 113 -2.5
    endloop
  endfacet
  facet normal 0 0.923923 -0.382579
    outer loop
      vertex 17.5 110.5 0
      vertex 11.5 111.232 1.76777
      vertex 17.5 111.232 1.76777
    endloop
  endfacet
  facet normal 0 0.923923 -0.382579
    outer loop
      vertex 11.5 111.232 1.76777
      vertex 17.5 110.5 0
      vertex 11.5 110.5 0
    endloop
  endfacet
  facet normal 0 -0.382639 -0.923898
    outer loop
      vertex 11.5 113 2.5
      vertex 17.5 114.768 1.76777
      vertex 17.5 113 2.5
    endloop
  endfacet
  facet normal -0 -0.382639 -0.923898
    outer loop
      vertex 17.5 114.768 1.76777
      vertex 11.5 113 2.5
      vertex 11.5 114.768 1.76777
    endloop
  endfacet
  facet normal 0 -0.923923 -0.382579
    outer loop
      vertex 11.5 115.5 0
      vertex 17.5 114.768 1.76777
      vertex 11.5 114.768 1.76777
    endloop
  endfacet
  facet normal 0 -0.923923 -0.382579
    outer loop
      vertex 17.5 114.768 1.76777
      vertex 11.5 115.5 0
      vertex 17.5 115.5 0
    endloop
  endfacet
  facet normal -0 0.382639 0.923898
    outer loop
      vertex 11.5 113 -2.5
      vertex 17.5 111.232 -1.76777
      vertex 17.5 113 -2.5
    endloop
  endfacet
  facet normal 0 0.382639 0.923898
    outer loop
      vertex 17.5 111.232 -1.76777
      vertex 11.5 113 -2.5
      vertex 11.5 111.232 -1.76777
    endloop
  endfacet
  facet normal 0 0.923923 0.382579
    outer loop
      vertex 17.5 111.232 -1.76777
      vertex 11.5 110.5 0
      vertex 17.5 110.5 0
    endloop
  endfacet
  facet normal 0 0.923923 0.382579
    outer loop
      vertex 11.5 110.5 0
      vertex 17.5 111.232 -1.76777
      vertex 11.5 111.232 -1.76777
    endloop
  endfacet
  facet normal -0.632835 -0.151087 0.759403
    outer loop
      vertex 11.5 113 -2.5
      vertex 8.5 114.913 -4.6194
      vertex 8.5 113 -5
    endloop
  endfacet
  facet normal -0.632745 -0.643833 0.430248
    outer loop
      vertex 11.5 114.768 -1.76777
      vertex 11.5 115.31 -0.956708
      vertex 8.5 117.619 -1.91342
    endloop
  endfacet
  facet normal -0.632839 -0.430009 -0.6439
    outer loop
      vertex 8.5 116.536 3.53553
      vertex 11.5 114.768 1.76777
      vertex 8.5 114.913 4.6194
    endloop
  endfacet
  facet normal -0.632823 -0.759388 0.151209
    outer loop
      vertex 11.5 115.5 0
      vertex 8.5 118 0
      vertex 8.5 117.619 -1.91342
    endloop
  endfacet
  facet normal -0.632839 -0.430009 0.6439
    outer loop
      vertex 11.5 114.768 -1.76777
      vertex 8.5 116.536 -3.53553
      vertex 8.5 114.913 -4.6194
    endloop
  endfacet
  facet normal -0.63271 -0.759555 0.150846
    outer loop
      vertex 11.5 115.31 -0.956708
      vertex 11.5 115.5 0
      vertex 8.5 117.619 -1.91342
    endloop
  endfacet
  facet normal -0.632835 0.151087 0.759403
    outer loop
      vertex 11.5 113 -2.5
      vertex 8.5 113 -5
      vertex 8.5 111.087 -4.6194
    endloop
  endfacet
  facet normal -0.63284 0.64395 -0.429932
    outer loop
      vertex 8.5 109.464 3.53553
      vertex 11.5 111.232 1.76777
      vertex 8.5 108.381 1.91342
    endloop
  endfacet
  facet normal -0.632745 0.643833 -0.430248
    outer loop
      vertex 11.5 111.232 1.76777
      vertex 11.5 110.69 0.956708
      vertex 8.5 108.381 1.91342
    endloop
  endfacet
  facet normal -0.632823 0.759388 -0.151209
    outer loop
      vertex 8.5 108.381 1.91342
      vertex 11.5 110.5 0
      vertex 8.5 108 0
    endloop
  endfacet
  facet normal -0.63271 0.759555 0.150846
    outer loop
      vertex 11.5 110.5 0
      vertex 11.5 110.69 -0.956708
      vertex 8.5 108.381 -1.91342
    endloop
  endfacet
  facet normal -0.632823 -0.759388 -0.151209
    outer loop
      vertex 8.5 118 0
      vertex 11.5 115.5 0
      vertex 8.5 117.619 1.91342
    endloop
  endfacet
  facet normal -0.632835 -0.151087 -0.759403
    outer loop
      vertex 8.5 114.913 4.6194
      vertex 11.5 113 2.5
      vertex 8.5 113 5
    endloop
  endfacet
  facet normal -0.63271 0.759555 -0.150846
    outer loop
      vertex 11.5 110.69 0.956708
      vertex 11.5 110.5 0
      vertex 8.5 108.381 1.91342
    endloop
  endfacet
  facet normal -1 0 -0
    outer loop
      vertex 11.5 112.043 2.3097
      vertex 11.5 113 2.5
      vertex 11.5 111.232 1.76777
    endloop
  endfacet
  facet normal -1 0 -0
    outer loop
      vertex 11.5 110.69 0.956708
      vertex 11.5 111.232 1.76777
      vertex 11.5 110.5 0
    endloop
  endfacet
  facet normal -1 0 0
    outer loop
      vertex 11.5 111.232 -1.76777
      vertex 11.5 110.69 -0.956708
      vertex 11.5 110.5 0
    endloop
  endfacet
  facet normal -1 -0 -0
    outer loop
      vertex 11.5 113.957 2.3097
      vertex 11.5 114.768 1.76777
      vertex 11.5 113 2.5
    endloop
  endfacet
  facet normal -1 -0 -0
    outer loop
      vertex 11.5 115.31 0.956708
      vertex 11.5 115.5 0
      vertex 11.5 114.768 1.76777
    endloop
  endfacet
  facet normal -1 0 0
    outer loop
      vertex 11.5 115.5 0
      vertex 11.5 115.31 -0.956708
      vertex 11.5 114.768 -1.76777
    endloop
  endfacet
  facet normal -1 0 0
    outer loop
      vertex 11.5 114.768 -1.76777
      vertex 11.5 113.957 -2.3097
      vertex 11.5 113 -2.5
    endloop
  endfacet
  facet normal -1 0 0
    outer loop
      vertex 11.5 113 -2.5
      vertex 11.5 112.043 -2.3097
      vertex 11.5 111.232 -1.76777
    endloop
  endfacet
  facet normal -0.632823 0.759388 0.151209
    outer loop
      vertex 11.5 110.5 0
      vertex 8.5 108.381 -1.91342
      vertex 8.5 108 0
    endloop
  endfacet
  facet normal -0.632775 -0.430218 -0.643823
    outer loop
      vertex 11.5 114.768 1.76777
      vertex 11.5 113.957 2.3097
      vertex 8.5 114.913 4.6194
    endloop
  endfacet
  facet normal -0.63284 -0.64395 -0.429932
    outer loop
      vertex 8.5 117.619 1.91342
      vertex 11.5 114.768 1.76777
      vertex 8.5 116.536 3.53553
    endloop
  endfacet
  facet normal -0.632839 0.430009 0.6439
    outer loop
      vertex 11.5 111.232 -1.76777
      vertex 8.5 111.087 -4.6194
      vertex 8.5 109.464 -3.53553
    endloop
  endfacet
  facet normal -0.632775 -0.430218 0.643823
    outer loop
      vertex 11.5 113.957 -2.3097
      vertex 11.5 114.768 -1.76777
      vertex 8.5 114.913 -4.6194
    endloop
  endfacet
  facet normal -0.63284 -0.64395 0.429932
    outer loop
      vertex 11.5 114.768 -1.76777
      vertex 8.5 117.619 -1.91342
      vertex 8.5 116.536 -3.53553
    endloop
  endfacet
  facet normal -0.632839 0.430009 -0.6439
    outer loop
      vertex 8.5 111.087 4.6194
      vertex 11.5 111.232 1.76777
      vertex 8.5 109.464 3.53553
    endloop
  endfacet
  facet normal -0.63271 -0.759555 -0.150846
    outer loop
      vertex 11.5 115.5 0
      vertex 11.5 115.31 0.956708
      vertex 8.5 117.619 1.91342
    endloop
  endfacet
  facet normal -0.632835 0.151087 -0.759403
    outer loop
      vertex 8.5 113 5
      vertex 11.5 113 2.5
      vertex 8.5 111.087 4.6194
    endloop
  endfacet
  facet normal -0.632813 -0.151014 -0.759436
    outer loop
      vertex 11.5 113.957 2.3097
      vertex 11.5 113 2.5
      vertex 8.5 114.913 4.6194
    endloop
  endfacet
  facet normal -0.632775 0.430218 -0.643823
    outer loop
      vertex 11.5 112.043 2.3097
      vertex 11.5 111.232 1.76777
      vertex 8.5 111.087 4.6194
    endloop
  endfacet
  facet normal -0.632813 0.151014 0.759436
    outer loop
      vertex 11.5 112.043 -2.3097
      vertex 11.5 113 -2.5
      vertex 8.5 111.087 -4.6194
    endloop
  endfacet
  facet normal -0.632745 0.643833 0.430248
    outer loop
      vertex 11.5 110.69 -0.956708
      vertex 11.5 111.232 -1.76777
      vertex 8.5 108.381 -1.91342
    endloop
  endfacet
  facet normal -0.63284 0.64395 0.429932
    outer loop
      vertex 11.5 111.232 -1.76777
      vertex 8.5 109.464 -3.53553
      vertex 8.5 108.381 -1.91342
    endloop
  endfacet
  facet normal -0.632813 -0.151014 0.759436
    outer loop
      vertex 11.5 113 -2.5
      vertex 11.5 113.957 -2.3097
      vertex 8.5 114.913 -4.6194
    endloop
  endfacet
  facet normal -0.632745 -0.643833 -0.430248
    outer loop
      vertex 11.5 115.31 0.956708
      vertex 11.5 114.768 1.76777
      vertex 8.5 117.619 1.91342
    endloop
  endfacet
  facet normal -0.632775 0.430218 0.643823
    outer loop
      vertex 11.5 111.232 -1.76777
      vertex 11.5 112.043 -2.3097
      vertex 8.5 111.087 -4.6194
    endloop
  endfacet
  facet normal -0.632813 0.151014 -0.759436
    outer loop
      vertex 11.5 113 2.5
      vertex 11.5 112.043 2.3097
      vertex 8.5 111.087 4.6194
    endloop
  endfacet
  facet normal -1 0 0
    outer loop
      vertex 10 57 -10
      vertex 10 87 10
      vertex 10 87 -10
    endloop
  endfacet
  facet normal -1 -0 0
    outer loop
      vertex 10 87 10
      vertex 10 57 -10
      vertex 10 57 10
    endloop
  endfacet
  facet normal 0 -1 0
    outer loop
      vertex 8.5 87 -10
      vertex 10 87 10
      vertex 8.5 87 10
    endloop
  endfacet
  facet normal 0 -1 -0
    outer loop
      vertex 10 87 10
      vertex 8.5 87 -10
      vertex 10 87 -10
    endloop
  endfacet
  facet normal 0 1 -0
    outer loop
      vertex 10 57 -10
      vertex 8.5 57 10
      vertex 10 57 10
    endloop
  endfacet
  facet normal 0 1 0
    outer loop
      vertex 8.5 57 10
      vertex 10 57 -10
      vertex 8.5 57 -10
    endloop
  endfacet
endsolid OpenSCAD_Model
